<svg width="25" height="28" viewBox="0 0 25 28" fill="none" xmlns="http://www.w3.org/2000/svg">
<path fill-rule="evenodd" clip-rule="evenodd" d="M22.9167 25.9136V8.34872L12.5036 2.25261L2.08333 8.39482V25.9136H7.63887V19.0368C7.63887 17.3084 9.03798 15.9072 10.7639 15.9072H14.2361C15.962 15.9072 17.3611 17.3084 17.3611 19.0368V25.9136H22.9167ZM23.9583 28C24.5336 28 25 27.5329 25 26.9568V7.75018C25 7.37949 24.8036 7.03665 24.484 6.84957L13.0275 0.142591C12.7018 -0.0480929 12.2986 -0.04749 11.9734 0.144167L0.513287 6.89932C0.195254 7.08679 0 7.42878 0 7.79835V26.9568C0 27.5329 0.46637 28 1.04167 28H8.68053C9.25583 28 9.7222 27.5329 9.7222 26.9568V19.0368C9.7222 18.4606 10.1886 17.9936 10.7639 17.9936H14.2361C14.8114 17.9936 15.2778 18.4606 15.2778 19.0368V26.9568C15.2778 27.5329 15.7442 28 16.3195 28H23.9583Z" fill="white"/>
</svg>
