<svg width="48" height="48" viewBox="0 0 48 48" fill="none" xmlns="http://www.w3.org/2000/svg">
<path fill-rule="evenodd" clip-rule="evenodd" d="M46 24C46 36.1503 36.1503 46 24 46C11.8497 46 2 36.1503 2 24C2 11.8497 11.8497 2 24 2C36.1503 2 46 11.8497 46 24ZM16.3 15.1C16.3 14.5477 16.7477 14.1 17.3 14.1H20.8C21.3523 14.1 21.8 14.5477 21.8 15.1V32.9C21.8 33.4523 21.3523 33.9 20.8 33.9H17.3C16.7477 33.9 16.3 33.4523 16.3 32.9V15.1ZM27.2 14.1C26.6477 14.1 26.2 14.5477 26.2 15.1V32.9C26.2 33.4523 26.6477 33.9 27.2 33.9H30.7C31.2523 33.9 31.7 33.4523 31.7 32.9V15.1C31.7 14.5477 31.2523 14.1 30.7 14.1H27.2Z" fill="white"/>
</svg>
