<svg width="40" height="40" viewBox="0 0 40 40" fill="none" xmlns="http://www.w3.org/2000/svg">
<path fill-rule="evenodd" clip-rule="evenodd" d="M40 20C40 31.0457 31.0457 40 20 40C8.9543 40 0 31.0457 0 20C0 8.9543 8.9543 0 20 0C31.0457 0 40 8.9543 40 20ZM13 12C13 11.4477 13.4477 11 14 11H17C17.5523 11 18 11.4477 18 12V28C18 28.5523 17.5523 29 17 29H14C13.4477 29 13 28.5523 13 28V12ZM23 11C22.4477 11 22 11.4477 22 12V28C22 28.5523 22.4477 29 23 29H26C26.5523 29 27 28.5523 27 28V12C27 11.4477 26.5523 11 26 11H23Z" fill="white"/>
</svg>
