<svg width="44" height="44" viewBox="0 0 44 44" fill="none" xmlns="http://www.w3.org/2000/svg">
<g clip-path="url(#clip0_131_2994)">
<path fill-rule="evenodd" clip-rule="evenodd" d="M12.5715 22C12.5715 23.7358 11.1644 25.1429 9.42862 25.1429C7.69287 25.1429 6.28577 23.7358 6.28577 22C6.28577 20.2643 7.69287 18.8572 9.42862 18.8572C11.1644 18.8572 12.5715 20.2643 12.5715 22ZM25.1429 22C25.1429 23.7358 23.7358 25.1429 22.0001 25.1429C20.2643 25.1429 18.8572 23.7358 18.8572 22C18.8572 20.2643 20.2643 18.8572 22.0001 18.8572C23.7358 18.8572 25.1429 20.2643 25.1429 22ZM34.5715 25.1429C36.3072 25.1429 37.7143 23.7358 37.7143 22C37.7143 20.2643 36.3072 18.8572 34.5715 18.8572C32.8357 18.8572 31.4286 20.2643 31.4286 22C31.4286 23.7358 32.8357 25.1429 34.5715 25.1429Z" fill="white"/>
</g>
<defs>
<clipPath id="clip0_131_2994">
<rect width="44" height="44" fill="white"/>
</clipPath>
</defs>
</svg>
